<svg width="463" height="192" viewBox="0 0 463 192" fill="none" xmlns="http://www.w3.org/2000/svg">
<g style="mix-blend-mode:multiply" opacity="0.331">
<path d="M26.0408 -60.033C299.057 25.2086 615.983 234.739 693.942 426.661C772.769 283.586 756.987 121.577 597.882 -0.383177C585.306 -10.0284 572.54 -18.9584 559.582 -27.1733C388.881 -135.649 188.55 -124.015 26.0408 -60.033Z" fill="#024A9A"/>
</g>
<path style="mix-blend-mode:multiply" opacity="0.331" d="M305.616 -130.36C503.393 40.2013 671.228 337.58 634.117 536.902C784.87 435.431 861.164 284.393 786.27 120.022C780.429 107.19 773.93 94.7497 766.808 82.7641C673.967 -73.4633 487.411 -131.948 305.616 -130.36Z" fill="url(#paint0_linear_979_279455)"/>
<path opacity="0.331" d="M980.633 75.1553C715.699 111.632 452.846 290.209 444.912 507.076C300.657 311.024 252.487 115.403 377.677 5.0853C387.524 -3.59157 397.944 -11.4118 408.847 -18.3076C552.196 -109.085 776.575 -44.4647 980.633 75.1553Z" fill="url(#paint1_linear_979_279455)"/>
<path opacity="0.844" d="M1038.71 108.446C662.81 225.808 226.461 514.3 119.123 778.539C10.5909 581.55 32.3158 358.498 251.381 190.573C268.697 177.292 286.274 164.997 304.114 153.688C539.134 4.33917 814.96 20.3529 1038.71 108.446Z" stroke="#FFDC00"/>
<path opacity="0.348" d="M959.266 -4.87305C638.861 189.472 320.124 561.474 309.244 838.825C136.069 672.94 79.0238 453.753 230.976 244.793C242.86 228.443 255.482 212.789 268.79 197.893C442.573 3.33375 713.362 -41.0687 959.266 -4.87305Z" stroke="#FFDC00" stroke-width="0.500059"/>
<path opacity="0.844" d="M743.772 639.177C682.765 325.242 422.957 -73.5208 119.146 -215.207C388.105 -253.777 660.079 -186.856 819.173 18.5471C831.242 34.0672 842.561 50.3062 853.079 67.1935C985.519 280.61 903.515 487.934 743.772 639.177Z" stroke="#FFDC00"/>
<path opacity="0.844" d="M586.031 692.71C616.43 376.059 477.381 -58.2517 221.872 -249.815C495.009 -240.03 740.89 -126.924 837.135 101.241C844.483 118.57 850.868 136.396 856.253 154.614C924.236 385.897 784.985 573.471 586.032 692.71" stroke="#FFDC00"/>
<defs>
<linearGradient id="paint0_linear_979_279455" x1="460.482" y1="-211.581" x2="805.807" y2="446.858" gradientUnits="userSpaceOnUse">
<stop stop-color="#60B9FF"/>
<stop offset="1" stop-color="white"/>
</linearGradient>
<linearGradient id="paint1_linear_979_279455" x1="845.99" y1="-111.85" x2="288.31" y2="289.676" gradientUnits="userSpaceOnUse">
<stop stop-color="#044F8D"/>
<stop offset="1" stop-color="#005FAA"/>
</linearGradient>
</defs>
</svg>
