<svg width="593" height="402" viewBox="0 0 593 402" fill="none" xmlns="http://www.w3.org/2000/svg">
<path fill-rule="evenodd" clip-rule="evenodd" d="M46.5785 401.077C29.0398 401.077 20.3367 380.438 33.3624 368.693C170.469 245.069 375.693 176.741 583.778 199.675C593.732 200.772 601.143 209.274 601.143 219.288V378.757C601.143 391.077 592.026 401.077 580.772 401.077H46.5785Z" fill="#CDE4FF" fill-opacity="0.3"/>
<path fill-rule="evenodd" clip-rule="evenodd" d="M131.973 10.2361C116.291 -1.44943 124.44 -26.9328 143.997 -26.9328H580.794C592.772 -26.9328 602.476 -16.2511 602.476 -3.09021V377.234C602.476 390.395 592.772 401.077 580.794 401.077H564.88C559.321 401.077 554.013 398.76 550.222 394.694C418.813 253.725 281.739 121.835 131.973 10.2361Z" fill="#E9F3FF" fill-opacity="0.3"/>
<path fill-rule="evenodd" clip-rule="evenodd" d="M568.249 198.131C568.207 198.128 568.176 198.169 568.19 198.208L495.023 28.3C489.338 15.0988 499.019 0.389679 513.392 0.389679H580.774C592.027 0.389679 601.144 10.3895 601.144 22.7103V187.891C601.144 195.253 594.655 200.919 587.341 200.077C580.974 199.344 574.609 198.696 568.249 198.131Z" fill="#FFDC00" fill-opacity="0.3"/>
<path fill-rule="evenodd" clip-rule="evenodd" d="M601.142 212.938C601.142 226.778 582.121 230.553 576.647 217.842C572.821 208.956 579.853 199.189 589.461 200.325C589.671 200.35 589.882 200.375 590.093 200.4C596.426 201.154 601.142 206.561 601.142 212.938Z" fill="#FDE8B2" fill-opacity="0.3"/>
<path fill-rule="evenodd" clip-rule="evenodd" d="M435.706 2.54832C435.317 1.50149 436.092 0.390163 437.209 0.390163V0.390163C437.878 0.390163 438.475 0.804009 438.708 1.43085C484.233 123.896 519.914 258.328 550.27 399.156C550.483 400.143 549.731 401.077 548.721 401.077V401.077C547.973 401.077 547.327 400.554 547.169 399.824C516.811 259.064 481.167 124.799 435.706 2.54832Z" fill="#FFDC00" fill-opacity="0.3"/>
<path fill-rule="evenodd" clip-rule="evenodd" d="M394.401 2.84084C393.762 1.75875 394.541 0.390164 395.797 0.390164V0.390164C396.371 0.390164 396.903 0.694195 397.194 1.18862C473.254 130.178 534.805 262.337 592.703 395.24C593.009 395.944 592.82 396.774 592.206 397.233V397.233C591.363 397.865 590.186 397.486 589.765 396.52C531.879 263.661 470.382 131.654 394.401 2.84084Z" fill="#FFDC00" fill-opacity="0.3"/>
<path fill-rule="evenodd" clip-rule="evenodd" d="M597.87 197.022C599.929 196.918 601.668 198.562 601.668 200.624V200.624V200.624C601.668 200.498 601.561 200.397 601.435 200.402C415.294 208.932 268.256 287.232 141.31 401.563C140.999 401.844 140.594 402 140.174 402V402C138.625 402 137.894 400.091 139.045 399.054C265.686 284.916 412.403 206.396 597.87 197.022Z" fill="#FFDC00" fill-opacity="0.3"/>
</svg>
