<svg width="96" height="39" viewBox="0 0 96 39" fill="none" xmlns="http://www.w3.org/2000/svg">
<path d="M86 0H10C4.47715 0 0 4.47715 0 10V29C0 34.5228 4.47715 39 10 39H86C91.5229 39 96 34.5228 96 29V10C96 4.47715 91.5229 0 86 0Z" fill="white"/>
<path d="M86 0.5H10C4.75329 0.5 0.5 4.75329 0.5 10V29C0.5 34.2467 4.75329 38.5 10 38.5H86C91.2467 38.5 95.5 34.2467 95.5 29V10C95.5 4.75329 91.2467 0.5 86 0.5Z" stroke="#EAECEE"/>
<path opacity="0.8" d="M16.709 18.143H13.087C12.7987 18.143 12.5222 18.2575 12.3184 18.4614C12.1145 18.6652 12 18.9417 12 19.23V30.1C12 30.3883 12.1145 30.6648 12.3184 30.8686C12.5222 31.0725 12.7987 31.187 13.087 31.187H16.709C16.8521 31.1875 16.9939 31.1598 17.1262 31.1054C17.2585 31.051 17.3789 30.971 17.4802 30.87C17.5816 30.7691 17.662 30.649 17.7169 30.5169C17.7718 30.3848 17.8 30.2431 17.8 30.1V19.23C17.8 19.0869 17.7718 18.9452 17.7169 18.8131C17.662 18.681 17.5816 18.5609 17.4802 18.46C17.3789 18.359 17.2585 18.279 17.1262 18.2246C16.9939 18.1702 16.8521 18.1425 16.709 18.143ZM14.9 29.372C14.685 29.372 14.4749 29.3082 14.2961 29.1888C14.1173 29.0694 13.978 28.8996 13.8957 28.701C13.8135 28.5024 13.7919 28.2838 13.8339 28.0729C13.8758 27.8621 13.9794 27.6684 14.1314 27.5164C14.2834 27.3644 14.4771 27.2608 14.6879 27.2189C14.8988 27.1769 15.1174 27.1985 15.316 27.2807C15.5146 27.363 15.6844 27.5023 15.8038 27.6811C15.9232 27.8599 15.987 28.07 15.987 28.285C15.987 28.4277 15.9589 28.5691 15.9043 28.701C15.8496 28.8329 15.7696 28.9527 15.6686 29.0536C15.5677 29.1546 15.4479 29.2346 15.316 29.2893C15.1841 29.3439 15.0427 29.372 14.9 29.372ZM29.388 11.688C29.388 13.609 28.212 14.688 27.881 15.969H32.487C33.1909 15.97 33.8667 16.2454 34.3708 16.7367C34.875 17.2279 35.1677 17.8964 35.187 18.6C35.1853 19.4271 34.8709 20.2229 34.307 20.828C34.5438 21.4153 34.6294 22.0527 34.5558 22.6817C34.4823 23.3107 34.252 23.9112 33.886 24.428C34.0589 25.0089 34.0815 25.6242 33.9517 26.2162C33.8219 26.8083 33.544 27.3577 33.144 27.813C33.249 28.1496 33.2785 28.5052 33.2304 28.8545C33.1824 29.2038 33.0579 29.5382 32.866 29.834C31.942 31.162 29.651 31.181 27.714 31.181H27.585C25.6974 31.1011 23.8498 30.6107 22.171 29.744C21.4256 29.3614 20.6186 29.1133 19.787 29.011C19.6446 29.0084 19.509 28.9501 19.4091 28.8485C19.3093 28.747 19.2532 28.6104 19.253 28.468V18.788C19.253 18.7162 19.2672 18.6451 19.2948 18.5789C19.3225 18.5126 19.363 18.4525 19.414 18.402C21.2 16.633 21.971 14.757 23.441 13.284C24.0571 12.5145 24.4543 11.5932 24.591 10.617C24.791 9.779 25.214 8 26.127 8C27.214 8 29.388 8.362 29.388 11.688Z" fill="#6C6C6C"/>
<path opacity="0.8" d="M83.7621 10.536V21.4C83.7625 21.5427 83.7348 21.6842 83.6805 21.8162C83.6263 21.9482 83.5465 22.0683 83.4459 22.1695C83.3452 22.2707 83.2256 22.3511 83.0939 22.4061C82.9621 22.4611 82.8209 22.4896 82.6781 22.49H79.0521C78.9092 22.4899 78.7677 22.4616 78.6358 22.4067C78.5038 22.3518 78.384 22.2715 78.2831 22.1702C78.1822 22.069 78.1023 21.9488 78.0479 21.8167C77.9935 21.6845 77.9657 21.5429 77.9661 21.4V10.536C77.9661 10.2477 78.0806 9.97123 78.2845 9.76737C78.4884 9.56352 78.7648 9.449 79.0531 9.449H82.6781C82.9659 9.44979 83.2416 9.56467 83.4448 9.76843C83.648 9.9722 83.7621 10.2482 83.7621 10.536ZM81.9511 19.592C81.9511 19.377 81.8874 19.1669 81.7679 18.9881C81.6485 18.8093 81.4787 18.67 81.2801 18.5877C81.0815 18.5055 80.8629 18.4839 80.6521 18.5259C80.4412 18.5678 80.2475 18.6714 80.0955 18.8234C79.9435 18.9754 79.84 19.1691 79.798 19.3799C79.7561 19.5908 79.7776 19.8094 79.8599 20.008C79.9421 20.2066 80.0815 20.3764 80.2602 20.4958C80.439 20.6152 80.6491 20.679 80.8641 20.679C81.1522 20.6787 81.4285 20.5641 81.6321 20.3603C81.8357 20.1564 81.9501 19.8801 81.9501 19.592H81.9511ZM69.6341 31.184C70.5481 31.184 70.9691 29.405 71.1701 28.567C71.3068 27.5908 71.7041 26.6695 72.3201 25.9C73.7901 24.427 74.5621 22.551 76.3551 20.778C76.4062 20.7275 76.4467 20.6674 76.4744 20.6012C76.502 20.5349 76.5162 20.4638 76.5161 20.392V10.712C76.5159 10.5696 76.4598 10.433 76.36 10.3315C76.2602 10.2299 76.1245 10.1716 75.9821 10.169C75.1505 10.0667 74.3435 9.8186 73.5981 9.436C71.9195 8.56976 70.0724 8.07972 68.1851 8H68.0571C66.1201 8 63.8291 8.019 62.9051 9.347C62.7132 9.64276 62.5888 9.97719 62.5407 10.3265C62.4927 10.6758 62.5222 11.0314 62.6271 11.368C62.2271 11.8233 61.9492 12.3727 61.8194 12.9648C61.6896 13.5568 61.7122 14.1721 61.8851 14.753C61.5192 15.2699 61.289 15.8703 61.2154 16.4993C61.1419 17.1283 61.2274 17.7657 61.4641 18.353C60.8974 18.9579 60.5808 19.7551 60.5781 20.584C60.5976 21.2876 60.8905 21.9558 61.3946 22.447C61.8987 22.9382 62.5743 23.2137 63.2781 23.215H67.8781C67.5501 24.5 66.3781 25.575 66.3781 27.5C66.3781 30.821 68.5471 31.184 69.6341 31.184Z" fill="#6C6C6C"/>
<g style="mix-blend-mode:overlay">
<rect x="1" y="4" width="91" height="32" rx="12" fill="#D9D9D9"/>
</g>
<path d="M48.5 0.5V39" stroke="#EAECEE"/>
</svg>