<svg width="16" height="25" viewBox="0 0 16 25" fill="none" xmlns="http://www.w3.org/2000/svg">
<path d="M14.7716 7.99929H9.01229L11.1386 1.9171C11.1844 1.75041 11.1892 1.57611 11.1526 1.40742C11.1161 1.23872 11.0391 1.08007 10.9275 0.943489C10.8159 0.806909 10.6727 0.695991 10.5087 0.61915C10.3447 0.542308 10.1642 0.501561 9.98089 0.5H2.79438C2.50484 0.500733 2.22536 0.59986 2.00758 0.77907C1.78979 0.95828 1.6484 1.20547 1.60954 1.47496L0.0103032 12.7239C-0.0120155 12.8828 0.00202185 13.0444 0.051478 13.1979C0.100934 13.3513 0.184671 13.4931 0.297098 13.6137C0.409525 13.7343 0.548055 13.831 0.703439 13.8973C0.858822 13.9637 1.02748 13.9981 1.19816 13.9983H7.12137L4.82109 23.115C4.75405 23.3779 4.79016 23.6546 4.92277 23.8944C5.05539 24.1343 5.27563 24.3212 5.54309 24.4208C5.81056 24.5205 6.10731 24.5262 6.37892 24.437C6.65052 24.3478 6.87877 24.1696 7.0218 23.9351L15.8045 9.68659C15.9103 9.516 15.9663 9.32222 15.9669 9.1248C15.9675 8.92738 15.9127 8.7333 15.8079 8.56216C15.7031 8.39102 15.5521 8.24886 15.3702 8.15003C15.1882 8.05121 14.9817 7.99921 14.7716 7.99929Z" fill="#005FAA"/>
</svg>
