<svg width="31" height="24" viewBox="0 0 31 24" fill="none" xmlns="http://www.w3.org/2000/svg">
<path d="M2.83001 0.531254C2.23666 0.530203 1.65805 0.716002 1.17624 1.0623C0.694431 1.40859 0.333892 1.89781 0.145761 2.46054C-0.0423694 3.02327 -0.0485388 3.63095 0.128128 4.19738C0.304795 4.76382 0.655328 5.26025 1.13001 5.61625L13.938 15.2223C14.2644 15.4659 14.6607 15.5975 15.068 15.5975C15.4753 15.5975 15.8716 15.4659 16.198 15.2223L29.006 5.61625C29.4801 5.26071 29.8303 4.76509 30.0072 4.19953C30.1841 3.63397 30.1787 3.0271 29.9917 2.4648C29.8047 1.9025 29.4456 1.41325 28.9652 1.06625C28.4849 0.719254 27.9076 0.532093 27.315 0.531254H2.83001ZM0.00500594 7.12326V19.3663C0.00632987 20.3647 0.403698 21.3219 1.10992 22.0278C1.81614 22.7336 2.77353 23.1305 3.77201 23.1313H26.372C27.3708 23.1305 28.3285 22.7333 29.0348 22.0271C29.7411 21.3208 30.1382 20.3631 30.139 19.3643V7.12326L17.333 16.7313C16.6814 17.2211 15.8882 17.486 15.073 17.486C14.2578 17.486 13.4646 17.2211 12.813 16.7313L0.00500594 7.12326Z" fill="#EAECEE"/>
</svg>
