<svg width="31" height="23" viewBox="0 0 31 23" fill="none" xmlns="http://www.w3.org/2000/svg">
<path d="M2.83001 0.164006C2.23666 0.162954 1.65805 0.348754 1.17624 0.69505C0.694431 1.04135 0.333892 1.53056 0.145761 2.09329C-0.0423694 2.65602 -0.0485388 3.2637 0.128128 3.83014C0.304795 4.39657 0.655328 4.893 1.13001 5.249L13.938 14.855C14.2644 15.0986 14.6607 15.2303 15.068 15.2303C15.4753 15.2303 15.8716 15.0986 16.198 14.855L29.006 5.249C29.4801 4.89346 29.8303 4.39784 30.0072 3.83228C30.1841 3.26672 30.1787 2.65985 29.9917 2.09755C29.8047 1.53525 29.4456 1.046 28.9652 0.699002C28.4849 0.352006 27.9076 0.164844 27.315 0.164006H2.83001ZM0.00500594 6.75601V18.999C0.00632987 19.9975 0.403698 20.9547 1.10992 21.6605C1.81614 22.3663 2.77353 22.7632 3.77201 22.764H26.372C27.3708 22.7632 28.3285 22.3661 29.0348 21.6598C29.7411 20.9535 30.1382 19.9958 30.139 18.997V6.75601L17.333 16.364C16.6814 16.8539 15.8882 17.1188 15.073 17.1188C14.2578 17.1188 13.4646 16.8539 12.813 16.364L0.00500594 6.75601Z" fill="#EAECEE"/>
</svg>
