<svg width="24" height="24" viewBox="0 0 24 24" fill="none" xmlns="http://www.w3.org/2000/svg">
<path d="M4.709 10.143H1.087C0.79871 10.143 0.522227 10.2575 0.318375 10.4614C0.114523 10.6652 0 10.9417 0 11.23L0 22.1C0 22.3883 0.114523 22.6648 0.318375 22.8686C0.522227 23.0725 0.79871 23.187 1.087 23.187H4.709C4.85208 23.1875 4.99386 23.1598 5.12621 23.1054C5.25855 23.051 5.37885 22.971 5.48021 22.87C5.58157 22.7691 5.662 22.649 5.71688 22.5169C5.77175 22.3848 5.8 22.2431 5.8 22.1V11.23C5.8 11.0869 5.77175 10.9452 5.71688 10.8131C5.662 10.681 5.58157 10.5609 5.48021 10.46C5.37885 10.359 5.25855 10.279 5.12621 10.2246C4.99386 10.1702 4.85208 10.1425 4.709 10.143ZM2.9 21.372C2.68501 21.372 2.47485 21.3082 2.2961 21.1888C2.11734 21.0694 1.97802 20.8996 1.89574 20.701C1.81347 20.5024 1.79194 20.2838 1.83389 20.0729C1.87583 19.8621 1.97936 19.6684 2.13137 19.5164C2.28339 19.3644 2.47708 19.2608 2.68794 19.2189C2.89879 19.1769 3.11735 19.1985 3.31598 19.2807C3.5146 19.363 3.68437 19.5023 3.80381 19.6811C3.92325 19.8599 3.987 20.07 3.987 20.285C3.987 20.4277 3.95888 20.5691 3.90426 20.701C3.84963 20.8329 3.76956 20.9527 3.66863 21.0536C3.56769 21.1546 3.44786 21.2346 3.31598 21.2893C3.1841 21.3439 3.04275 21.372 2.9 21.372ZM17.388 3.688C17.388 5.609 16.212 6.688 15.881 7.969H20.487C21.1909 7.97004 21.8667 8.24543 22.3708 8.73668C22.875 9.22793 23.1677 9.89636 23.187 10.6C23.1853 11.4271 22.8709 12.2229 22.307 12.828C22.5438 13.4153 22.6294 14.0527 22.5558 14.6817C22.4823 15.3107 22.252 15.9112 21.886 16.428C22.0589 17.0089 22.0815 17.6242 21.9517 18.2162C21.8219 18.8083 21.544 19.3577 21.144 19.813C21.249 20.1496 21.2785 20.5052 21.2304 20.8545C21.1824 21.2038 21.0579 21.5382 20.866 21.834C19.942 23.162 17.651 23.181 15.714 23.181H15.585C13.6974 23.1011 11.8498 22.6107 10.171 21.744C9.4256 21.3614 8.61858 21.1133 7.787 21.011C7.64464 21.0084 7.50897 20.9501 7.40913 20.8485C7.30929 20.747 7.25324 20.6104 7.253 20.468V10.788C7.25299 10.7162 7.26721 10.6451 7.29485 10.5789C7.32248 10.5126 7.36298 10.4525 7.414 10.402C9.2 8.633 9.971 6.757 11.441 5.284C12.0571 4.51451 12.4543 3.5932 12.591 2.617C12.791 1.779 13.214 0 14.127 0C15.214 0 17.388 0.362 17.388 3.688Z" fill="#005FAA"/>
</svg>
