<svg width="24" height="24" viewBox="0 0 24 24" fill="none" xmlns="http://www.w3.org/2000/svg">
<path d="M23.7621 2.536V13.4C23.7625 13.5427 23.7348 13.6842 23.6805 13.8162C23.6263 13.9482 23.5465 14.0683 23.4459 14.1695C23.3452 14.2707 23.2256 14.3511 23.0939 14.4061C22.9621 14.4611 22.8209 14.4896 22.6781 14.49H19.0521C18.9092 14.4899 18.7677 14.4616 18.6358 14.4067C18.5038 14.3518 18.384 14.2715 18.2831 14.1702C18.1822 14.069 18.1023 13.9488 18.0479 13.8167C17.9935 13.6845 17.9657 13.5429 17.9661 13.4V2.536C17.9661 2.24771 18.0806 1.97123 18.2845 1.76737C18.4884 1.56352 18.7648 1.449 19.0531 1.449H22.6781C22.9659 1.44979 23.2416 1.56467 23.4448 1.76843C23.648 1.9722 23.7621 2.24823 23.7621 2.536ZM21.9511 11.592C21.9511 11.377 21.8874 11.1669 21.7679 10.9881C21.6485 10.8093 21.4787 10.67 21.2801 10.5877C21.0815 10.5055 20.8629 10.4839 20.6521 10.5259C20.4412 10.5678 20.2475 10.6714 20.0955 10.8234C19.9435 10.9754 19.84 11.1691 19.798 11.3799C19.7561 11.5908 19.7776 11.8094 19.8599 12.008C19.9421 12.2066 20.0815 12.3764 20.2602 12.4958C20.439 12.6152 20.6491 12.679 20.8641 12.679C21.1522 12.6787 21.4285 12.5641 21.6321 12.3603C21.8357 12.1564 21.9501 11.8801 21.9501 11.592H21.9511ZM9.63412 23.184C10.5481 23.184 10.9691 21.405 11.1701 20.567C11.3068 19.5908 11.7041 18.6695 12.3201 17.9C13.7901 16.427 14.5621 14.551 16.3551 12.778C16.4062 12.7275 16.4467 12.6674 16.4744 12.6012C16.502 12.5349 16.5162 12.4638 16.5161 12.392V2.712C16.5159 2.56961 16.4598 2.43299 16.36 2.33147C16.2602 2.22995 16.1245 2.17162 15.9821 2.169C15.1505 2.06674 14.3435 1.8186 13.5981 1.436C11.9195 0.56976 10.0724 0.0797246 8.18512 0L8.05713 0C6.12012 0 3.82912 0.0190001 2.90512 1.347C2.71318 1.64276 2.58875 1.97719 2.5407 2.32649C2.49266 2.67579 2.52216 3.03139 2.62713 3.368C2.22709 3.82333 1.94918 4.37273 1.8194 4.96477C1.68962 5.5568 1.71224 6.17209 1.88513 6.753C1.51924 7.26987 1.28897 7.87032 1.21541 8.4993C1.14186 9.12828 1.22738 9.76566 1.46412 10.353C0.897411 10.9579 0.580844 11.7551 0.578125 12.584C0.597631 13.2876 0.890496 13.9558 1.39458 14.447C1.89866 14.9382 2.5743 15.2137 3.27813 15.215H7.87813C7.55013 16.5 6.37813 17.575 6.37813 19.5C6.37813 22.821 8.54712 23.184 9.63412 23.184Z" fill="#005FAA"/>
</svg>
