<svg width="16" height="19" viewBox="0 0 16 19" fill="none" xmlns="http://www.w3.org/2000/svg">
<path d="M13.9341 7.38187C13.0638 6.40673 12.0965 5.50513 11.0444 4.68829C9.9263 3.73885 8.90881 2.74193 8.90302 1.22282C8.89493 1.05294 8.82094 0.890996 8.69394 0.765211C8.56694 0.639426 8.39497 0.557765 8.20801 0.534471C8.02928 0.485214 7.83774 0.488829 7.66147 0.544786C7.48519 0.600743 7.33343 0.706099 7.22845 0.845413C7.09858 1.00529 6.98065 1.17276 6.87542 1.34672C5.90264 2.72754 5.57711 4.39948 5.97016 5.99615C6.31588 7.09011 6.85634 8.12627 7.57043 9.06427C7.84351 9.42677 8.06248 9.82005 8.22171 10.234C8.30902 10.4942 8.31002 10.7718 8.22457 11.0325C8.13912 11.2932 7.97096 11.5258 7.74076 11.7016C7.51056 11.8773 7.22835 11.9887 6.92886 12.0219C6.62936 12.0551 6.32562 12.0087 6.055 11.8884C5.77782 11.7767 5.54517 11.5914 5.38826 11.3572C5.23135 11.123 5.15769 10.8512 5.17716 10.5782C5.18401 9.99427 5.17716 9.41036 5.17716 8.82645H5.18137C5.18137 8.20931 5.18769 7.59597 5.18137 6.98073C5.19577 6.79184 5.13949 6.60405 5.02153 6.44735C4.90357 6.29065 4.73073 6.17407 4.53061 6.11625C4.34113 6.06537 4.13966 6.06312 3.94884 6.10975C3.75802 6.15638 3.58541 6.25003 3.45043 6.3802C1.09825 8.10961 0.0733795 10.3304 0.640348 13.0263C0.896223 14.2329 1.51333 15.3535 2.42495 16.2669C3.33657 17.1804 4.50801 17.852 5.81261 18.2091C7.11721 18.5661 8.50533 18.5951 9.82688 18.2928C11.1484 17.9906 12.3531 17.3686 13.3107 16.4942C14.6075 15.2937 15.3835 13.7141 15.4979 12.0422C15.6123 10.3702 15.0574 8.71671 13.9341 7.38187Z" fill="#005FAA"/>
</svg>
