<svg width="30" height="31" viewBox="0 0 30 31" fill="none" xmlns="http://www.w3.org/2000/svg">
<g clip-path="url(#clip0_6187_295496)">
<path d="M14.999 30.0801C23.2833 30.0801 29.999 23.3643 29.999 15.0801C29.999 6.79581 23.2833 0.0800781 14.999 0.0800781C6.71475 0.0800781 -0.000976562 6.79581 -0.000976562 15.0801C-0.000976562 23.3643 6.71475 30.0801 14.999 30.0801Z" fill="#5EB0F4"/>
<path d="M8.72504 20.0311L19.95 8.80606L21.273 10.1291L10.048 21.3541L8.72504 20.0311Z" fill="white"/>
<path d="M14.064 10.8711C14.0641 10.1136 13.8014 9.3796 13.3209 8.79406C12.8404 8.20851 12.1718 7.80769 11.4289 7.65989C10.686 7.51209 9.91481 7.62645 9.24678 7.98349C8.57875 8.34053 8.05518 8.91816 7.76529 9.61795C7.4754 10.3177 7.43711 11.0964 7.65697 11.8212C7.87682 12.5461 8.3412 13.1723 8.97099 13.5931C9.60078 14.014 10.357 14.2034 11.1108 14.1292C11.8646 14.055 12.5694 13.7217 13.105 13.1861C13.4091 12.8821 13.6503 12.5212 13.8148 12.124C13.9794 11.7268 14.0641 11.301 14.064 10.8711ZM9.38702 10.8711C9.38728 10.5473 9.49975 10.2336 9.70531 9.98343C9.91086 9.73325 10.1968 9.56206 10.5144 9.499C10.832 9.43595 11.1616 9.48492 11.4471 9.63759C11.7327 9.79026 11.9565 10.0372 12.0804 10.3363C12.2043 10.6355 12.2208 10.9683 12.1269 11.2782C12.033 11.5881 11.8346 11.8558 11.5654 12.0358C11.2963 12.2159 10.9731 12.2971 10.6508 12.2656C10.3286 12.2341 10.0272 12.0918 9.79802 11.8631C9.6667 11.7333 9.56235 11.5789 9.49095 11.4086C9.41956 11.2384 9.38253 11.0557 9.38202 10.8711H9.38702Z" fill="white"/>
<path d="M19.208 16.0151C18.4505 16.015 17.7165 16.2777 17.131 16.7582C16.5454 17.2387 16.1446 17.9073 15.9968 18.6502C15.849 19.3931 15.9634 20.1643 16.3204 20.8323C16.6774 21.5004 17.2551 22.0239 17.9548 22.3138C18.6546 22.6037 19.4333 22.642 20.1582 22.4221C20.883 22.2023 21.5092 21.7379 21.93 21.1081C22.3509 20.4783 22.5403 19.7221 22.4661 18.9683C22.3919 18.2145 22.0586 17.5097 21.523 16.9741C20.909 16.3601 20.0763 16.0151 19.208 16.0151ZM19.208 20.6921C18.8842 20.6918 18.5705 20.5794 18.3203 20.3738C18.0702 20.1683 17.899 19.8823 17.8359 19.5647C17.7729 19.2471 17.8218 18.9175 17.9745 18.632C18.1272 18.3464 18.3741 18.1227 18.6732 17.9987C18.9724 17.8748 19.3052 17.8583 19.6151 17.9522C19.925 18.0461 20.1927 18.2445 20.3728 18.5137C20.5528 18.7828 20.634 19.106 20.6025 19.4283C20.571 19.7505 20.4287 20.0519 20.2 20.2811C20.0698 20.4115 19.9152 20.515 19.745 20.5855C19.5748 20.656 19.3923 20.6922 19.208 20.6921Z" fill="white"/>
</g>
<defs>
<clipPath id="clip0_6187_295496">
<rect width="30" height="30" fill="white" transform="translate(-0.000976562 0.0800781)"/>
</clipPath>
</defs>
</svg>
