<svg width="19" height="28" viewBox="0 0 19 28" fill="none" xmlns="http://www.w3.org/2000/svg">
<path d="M17.2335 8.74917H10.5143L12.995 1.65328C13.0485 1.45881 13.0541 1.25546 13.0114 1.05865C12.9687 0.861844 12.8789 0.676747 12.7487 0.517404C12.6186 0.358061 12.4515 0.228656 12.2601 0.139008C12.0688 0.0493595 11.8582 0.0018214 11.6444 0H3.26011C2.92231 0.000855377 2.59626 0.116504 2.34217 0.325582C2.08809 0.534661 1.92314 0.823043 1.8778 1.13746L0.0120204 14.2612C-0.0140181 14.4466 0.00235883 14.6352 0.0600577 14.8142C0.117757 14.9932 0.21545 15.1586 0.346614 15.2993C0.477779 15.44 0.639397 15.5528 0.820678 15.6302C1.00196 15.7076 1.19873 15.7478 1.39786 15.7481H8.30827L5.6246 26.3842C5.5464 26.6908 5.58852 27.0137 5.74324 27.2935C5.89796 27.5733 6.1549 27.7914 6.46694 27.9076C6.77898 28.0239 7.1252 28.0306 7.44207 27.9265C7.75894 27.8224 8.02524 27.6145 8.1921 27.3409L18.4386 10.7177C18.562 10.5187 18.6274 10.2926 18.6281 10.0623C18.6288 9.83194 18.5648 9.60552 18.4425 9.40585C18.3203 9.20618 18.1442 9.04033 17.9319 8.92504C17.7196 8.80974 17.4787 8.74908 17.2335 8.74917Z" fill="#00294A"/>
</svg>
