<svg width="362" height="362" viewBox="0 0 362 362" fill="none" xmlns="http://www.w3.org/2000/svg">
<path d="M203.547 23.1719C203.547 10.7196 193.452 0.625 181 0.625C168.548 0.625 158.453 10.7196 158.453 23.1719V45.7188C158.453 58.171 168.548 68.2656 181 68.2656C193.452 68.2656 203.547 58.171 203.547 45.7188V23.1719Z" fill="#005FAA"/>
<path d="M308.543 85.3405C317.349 76.5354 317.349 62.2595 308.543 53.4544C299.738 44.6493 285.462 44.6493 276.657 53.4544L260.714 69.3975C251.909 78.2026 251.909 92.4785 260.714 101.284C269.519 110.089 283.795 110.089 292.6 101.284L308.543 85.3405Z" fill="#005FAA"/>
<path d="M361.375 181C361.375 193.452 351.28 203.547 338.828 203.547H316.281C303.829 203.547 293.734 193.452 293.734 181C293.734 168.548 303.829 158.453 316.281 158.453H338.828C351.28 158.453 361.375 168.548 361.375 181Z" fill="#005FAA"/>
<path d="M69.3972 101.284C78.2023 110.089 92.4782 110.089 101.283 101.284C110.088 92.4789 110.088 78.203 101.283 69.3979L85.3403 53.4548C76.5352 44.6497 62.2593 44.6497 53.4542 53.4548C44.6491 62.2599 44.6491 76.5358 53.4542 85.3409L69.3972 101.284Z" fill="#005FAA"/>
<path d="M68.2656 181C68.2656 193.452 58.171 203.547 45.7188 203.547H23.1719C10.7196 203.547 0.624997 193.452 0.625 181C0.625 168.548 10.7196 158.453 23.1719 158.453H45.7188C58.171 158.453 68.2656 168.548 68.2656 181Z" fill="#005FAA"/>
<path d="M135.906 316.281V293.734H226.094V316.281C226.094 341.186 205.905 361.375 181 361.375C156.095 361.375 135.906 341.186 135.906 316.281Z" fill="#005FAA"/>
<path d="M226.114 271.188C226.443 263.514 230.774 256.616 236.844 251.823C257.762 235.306 271.188 209.721 271.188 181C271.188 131.191 230.809 90.8125 181 90.8125C131.191 90.8125 90.8125 131.191 90.8125 181C90.8125 209.721 104.238 235.306 125.156 251.823C131.226 256.616 135.557 263.514 135.886 271.188H226.114Z" fill="#005FAA"/>
</svg>
