<svg width="607" height="402" viewBox="0 0 607 402" fill="none" xmlns="http://www.w3.org/2000/svg">
<path fill-rule="evenodd" clip-rule="evenodd" d="M46.5746 436.481C29.0359 436.481 20.3014 415.809 33.238 403.966C185.275 264.784 414.862 187.75 647.486 213.931C657.437 215.051 664.852 223.551 664.852 233.565V411.794C664.852 425.421 654.768 436.481 642.321 436.481H46.5746Z" fill="#CDE4FF" fill-opacity="0.3"/>
<path fill-rule="evenodd" clip-rule="evenodd" d="M140.538 0.187775C124.824 -11.4541 132.952 -36.9086 152.509 -36.9086H642.346C655.594 -36.9086 666.327 -25.0943 666.327 -10.5381V410.11C666.327 424.666 655.594 436.48 642.346 436.48H623.822C618.263 436.48 612.954 434.164 609.164 430.097C462.052 272.234 308.531 124.642 140.538 0.187775Z" fill="#E9F3FF" fill-opacity="0.3"/>
<path fill-rule="evenodd" clip-rule="evenodd" d="M628.471 212.019C628.424 212.015 628.39 212.06 628.406 212.104L546.207 21.2221C540.522 8.02083 550.202 -6.68826 564.576 -6.68826H642.323C654.77 -6.68826 664.854 4.3718 664.854 17.9988V200.692C664.854 208.835 657.677 215.102 649.587 214.171C642.545 213.359 635.505 212.643 628.471 212.019Z" fill="#FFDC00" fill-opacity="0.3"/>
<path fill-rule="evenodd" clip-rule="evenodd" d="M481.874 -4.30173C481.443 -5.45953 482.3 -6.68872 483.536 -6.68872C484.275 -6.68872 484.936 -6.23099 485.194 -5.53769C535.546 129.912 575.009 278.597 608.584 434.355C608.82 435.448 607.987 436.48 606.87 436.48C606.043 436.48 605.329 435.902 605.154 435.094C571.577 279.411 532.155 130.91 481.874 -4.30173Z" fill="#FFDC00" fill-opacity="0.3"/>
<path fill-rule="evenodd" clip-rule="evenodd" d="M436.187 -3.97809C435.481 -5.1749 436.342 -6.6886 437.732 -6.6886C438.366 -6.6886 438.954 -6.35233 439.277 -5.80548C523.401 136.86 591.477 283.031 655.514 430.025C655.853 430.803 655.644 431.721 654.964 432.229C654.031 432.928 652.73 432.509 652.264 431.44C588.241 284.496 520.224 138.492 436.187 -3.97809Z" fill="#FFDC00" fill-opacity="0.3"/>
<path fill-rule="evenodd" clip-rule="evenodd" d="M661.229 210.791C663.506 210.676 665.43 212.495 665.43 214.776C665.43 214.636 665.311 214.524 665.171 214.53C459.295 223.964 296.668 310.566 156.263 437.019C155.918 437.329 155.47 437.502 155.006 437.502C153.293 437.502 152.484 435.391 153.757 434.244C293.825 308.004 456.098 221.159 661.229 210.791Z" fill="#FFDC00" fill-opacity="0.3"/>
</svg>
