<svg width="770" height="402" viewBox="0 0 770 402" fill="none" xmlns="http://www.w3.org/2000/svg">
<mask id="mask0_480_56060" style="mask-type:alpha" maskUnits="userSpaceOnUse" x="0" y="0" width="770" height="402">
<rect width="770" height="402" rx="20" fill="#005FAA"/>
</mask>
<g mask="url(#mask0_480_56060)">
<path fill-rule="evenodd" clip-rule="evenodd" d="M209.575 436.481C192.036 436.481 183.301 415.809 196.238 403.966C348.275 264.784 577.862 187.75 810.486 213.931C820.437 215.051 827.852 223.551 827.852 233.565V411.794C827.852 425.421 817.768 436.481 805.321 436.481H209.575Z" fill="#CDE4FF" fill-opacity="0.3"/>
<path fill-rule="evenodd" clip-rule="evenodd" d="M303.538 0.187773C287.824 -11.4541 295.952 -36.9086 315.509 -36.9086H805.346C818.594 -36.9086 829.327 -25.0943 829.327 -10.5381V410.11C829.327 424.666 818.594 436.48 805.346 436.48H786.822C781.263 436.48 775.954 434.164 772.164 430.097C625.052 272.234 471.531 124.642 303.538 0.187773Z" fill="#E9F3FF" fill-opacity="0.3"/>
<path fill-rule="evenodd" clip-rule="evenodd" d="M791.471 212.019C791.424 212.015 791.39 212.06 791.406 212.104V212.104L709.207 21.2221C703.522 8.02083 713.202 -6.68826 727.576 -6.68826H805.323C817.77 -6.68826 827.854 4.37179 827.854 17.9988V200.692C827.854 208.835 820.677 215.102 812.587 214.171C805.545 213.359 798.505 212.643 791.471 212.019Z" fill="#FFDC00" fill-opacity="0.3"/>
<path fill-rule="evenodd" clip-rule="evenodd" d="M644.874 -4.30172C644.443 -5.45954 645.3 -6.68872 646.536 -6.68872V-6.68872C647.275 -6.68872 647.936 -6.23099 648.194 -5.53769C698.546 129.912 738.009 278.597 771.584 434.355C771.82 435.448 770.987 436.48 769.87 436.48V436.48C769.043 436.48 768.329 435.902 768.154 435.094C734.577 279.411 695.155 130.91 644.874 -4.30172Z" fill="#FFDC00" fill-opacity="0.3"/>
<path fill-rule="evenodd" clip-rule="evenodd" d="M599.187 -3.97808C598.481 -5.1749 599.342 -6.68859 600.732 -6.68859V-6.68859C601.366 -6.68859 601.954 -6.35232 602.277 -5.80547C686.401 136.86 754.477 283.031 818.514 430.025C818.853 430.803 818.644 431.721 817.964 432.229V432.229C817.031 432.928 815.73 432.509 815.264 431.44C751.241 284.496 683.224 138.492 599.187 -3.97808Z" fill="#FFDC00" fill-opacity="0.3"/>
<path fill-rule="evenodd" clip-rule="evenodd" d="M824.229 210.791C826.506 210.676 828.43 212.495 828.43 214.776V214.776V214.776C828.43 214.636 828.311 214.524 828.171 214.53C622.295 223.964 459.668 310.566 319.263 437.019C318.918 437.329 318.47 437.502 318.006 437.502V437.502C316.293 437.502 315.484 435.391 316.757 434.244C456.825 308.004 619.098 221.159 824.229 210.791Z" fill="#FFDC00" fill-opacity="0.3"/>
</g>
</svg>
