<svg width="39" height="29" viewBox="0 0 39 29" fill="none" xmlns="http://www.w3.org/2000/svg">
<path d="M2.83001 6.16407C2.23666 6.16302 1.65805 6.34881 1.17624 6.69511C0.694431 7.04141 0.333892 7.53062 0.145761 8.09335C-0.0423694 8.65608 -0.0485388 9.26376 0.128128 9.8302C0.304795 10.3966 0.655328 10.8931 1.13001 11.2491L13.938 20.8551C14.2644 21.0987 14.6607 21.2303 15.068 21.2303C15.4753 21.2303 15.8716 21.0987 16.198 20.8551L29.006 11.2491C29.4801 10.8935 29.8303 10.3979 30.0072 9.83234C30.1841 9.26678 30.1787 8.65992 29.9917 8.09761C29.8047 7.53531 29.4456 7.04606 28.9652 6.69906C28.4849 6.35207 27.9076 6.16491 27.315 6.16407H2.83001ZM0.00500594 12.7561V24.9991C0.00632987 25.9975 0.403698 26.9547 1.10992 27.6606C1.81614 28.3664 2.77353 28.7633 3.77201 28.7641H26.372C27.3708 28.7633 28.3285 28.3661 29.0348 27.6599C29.7411 26.9536 30.1382 25.9959 30.139 24.9971V12.7561L17.333 22.3641C16.6814 22.8539 15.8882 23.1188 15.073 23.1188C14.2578 23.1188 13.4646 22.8539 12.813 22.3641L0.00500594 12.7561Z" fill="#EAECEE"/>
<path d="M28.6484 20.5C34.1713 20.5 38.6484 16.0228 38.6484 10.5C38.6484 4.97715 34.1713 0.5 28.6484 0.5C23.1256 0.5 18.6484 4.97715 18.6484 10.5C18.6484 16.0228 23.1256 20.5 28.6484 20.5Z" fill="#DA1E28"/>
<path d="M28.6484 19.5C33.619 19.5 37.6484 15.4706 37.6484 10.5C37.6484 5.52944 33.619 1.5 28.6484 1.5C23.6779 1.5 19.6484 5.52944 19.6484 10.5C19.6484 15.4706 23.6779 19.5 28.6484 19.5Z" stroke="white" stroke-width="2"/>
<path d="M30.1165 5.90456V14.6318H28.5312V7.92445H28.4588C28.402 8.01252 28.294 8.10769 28.1349 8.20996C27.9759 8.30939 27.7713 8.39462 27.5213 8.46564C27.2741 8.53667 26.9858 8.57218 26.6562 8.57218V7.29377C26.9574 7.29377 27.2259 7.24121 27.4616 7.1361C27.6974 7.03098 27.8977 6.9003 28.0625 6.74405C28.2301 6.5878 28.3594 6.43297 28.4503 6.27956C28.5412 6.12615 28.5909 6.00115 28.5994 5.90456H30.1165Z" fill="white"/>
</svg>
