<svg width="28" height="29" viewBox="0 0 28 29" fill="none" xmlns="http://www.w3.org/2000/svg">
<path d="M13.9823 1.41596e-07C11.2168 1.41596e-07 8.51351 0.82871 6.21414 2.38133C3.91477 3.93396 2.12263 6.14076 1.06434 8.72268C0.00605834 11.3046 -0.270837 14.1457 0.268672 16.8866C0.80818 19.6276 2.13986 22.1453 4.09532 24.1214C6.05077 26.0975 8.54217 27.4433 11.2545 27.9885C13.9668 28.5337 16.7781 28.2539 19.333 27.1844C21.888 26.115 24.0717 24.3039 25.6081 21.9802C27.1445 19.6565 27.9645 16.9247 27.9645 14.13C27.9648 12.2743 27.6033 10.4368 26.9007 8.72237C26.1981 7.00792 25.1682 5.45014 23.8698 4.138C22.5714 2.82585 21.0299 1.78505 19.3334 1.07505C17.6368 0.365041 15.8185 -0.000262568 13.9823 1.41596e-07ZM6.5399 16.409C6.36055 16.4085 6.1887 16.3362 6.06188 16.2081C5.93506 16.0799 5.86358 15.9062 5.86306 15.725V12.537C5.86358 12.3558 5.93506 12.1821 6.06188 12.0539C6.1887 11.9258 6.36055 11.8535 6.5399 11.853H21.4236C21.603 11.8535 21.7748 11.9258 21.9017 12.0539C22.0285 12.1821 22.1 12.3558 22.1005 12.537V15.728C22.1 15.9092 22.0285 16.0829 21.9017 16.2111C21.7748 16.3392 21.603 16.4115 21.4236 16.412L6.5399 16.409Z" fill="#005FAA"/>
</svg>
