<svg width="30" height="30" viewBox="0 0 30 30" fill="none" xmlns="http://www.w3.org/2000/svg">
<g clip-path="url(#clip0_6042_362359)">
<path d="M15 30C23.2843 30 30 23.2843 30 15C30 6.71573 23.2843 0 15 0C6.71573 0 0 6.71573 0 15C0 23.2843 6.71573 30 15 30Z" fill="#044F8D"/>
<g clip-path="url(#clip1_6042_362359)">
<path d="M15.75 7.70312V8.01074C15.95 8.0459 16.1438 8.08984 16.3188 8.13379C16.7188 8.2334 16.9563 8.62012 16.85 8.99512C16.7438 9.37012 16.3312 9.59277 15.9312 9.49316C15.5906 9.4082 15.2719 9.34961 14.9875 9.34668C14.7594 9.34375 14.5281 9.39648 14.3813 9.47559C14.3156 9.51367 14.2844 9.5459 14.2719 9.56348C14.2625 9.57812 14.25 9.59863 14.25 9.64551C14.25 9.6543 14.25 9.66016 14.25 9.66309C14.2563 9.66895 14.2781 9.69824 14.3531 9.73926C14.5344 9.8418 14.8031 9.9209 15.2094 10.0352L15.2375 10.0439C15.5844 10.1406 16.0469 10.2725 16.4219 10.4922C16.85 10.7441 17.2375 11.1631 17.2469 11.8076C17.2562 12.4668 16.8906 12.9473 16.4125 13.2285C16.2031 13.3486 15.9781 13.4336 15.7469 13.4863V13.7969C15.7469 14.1865 15.4125 14.5 14.9969 14.5C14.5813 14.5 14.2469 14.1865 14.2469 13.7969V13.4629C13.95 13.3955 13.6781 13.3076 13.4469 13.2344C13.3812 13.2139 13.3187 13.1934 13.2594 13.1758C12.8656 13.0527 12.6531 12.6543 12.7844 12.2852C12.9156 11.916 13.3406 11.7168 13.7344 11.8398C13.8156 11.8662 13.8906 11.8896 13.9625 11.9131C14.3875 12.0479 14.6938 12.1445 15.0219 12.1562C15.2719 12.165 15.4937 12.1094 15.6219 12.0361C15.6812 12.001 15.7094 11.9717 15.7219 11.9512C15.7344 11.9336 15.75 11.8984 15.7469 11.8311V11.8252C15.7469 11.7959 15.7469 11.7637 15.6219 11.6904C15.4437 11.585 15.175 11.5029 14.775 11.3887L14.7156 11.3711C14.3781 11.2773 13.9344 11.1514 13.5781 10.9492C13.1562 10.7119 12.75 10.3047 12.7469 9.65723C12.7437 8.98633 13.15 8.52637 13.6125 8.26855C13.8125 8.15723 14.0281 8.08105 14.2437 8.02832V7.70312C14.2437 7.31348 14.5781 7 14.9937 7C15.4094 7 15.7437 7.31348 15.7437 7.70312H15.75ZM23.7563 16.8525C24.1656 17.374 24.0469 18.1064 23.4906 18.4902L19.5344 21.2236C18.8031 21.7275 17.9219 22 17.0125 22H12H7C6.44687 22 6 21.5811 6 21.0625V19.1875C6 18.6689 6.44687 18.25 7 18.25H8.15L9.55312 17.1953C10.2625 16.6621 11.1437 16.375 12.0531 16.375H14.5H15H17C17.5531 16.375 18 16.7939 18 17.3125C18 17.8311 17.5531 18.25 17 18.25H15H14.5C14.225 18.25 14 18.4609 14 18.7188C14 18.9766 14.225 19.1875 14.5 19.1875H18.2688L22.0094 16.6035C22.5656 16.2197 23.3469 16.3311 23.7563 16.8525ZM12.05 18.25H12.0219C12.0312 18.25 12.0406 18.25 12.05 18.25Z" fill="white"/>
</g>
</g>
<defs>
<clipPath id="clip0_6042_362359">
<rect width="30" height="30" fill="white"/>
</clipPath>
<clipPath id="clip1_6042_362359">
<rect width="18" height="15" fill="white" transform="translate(6 7)"/>
</clipPath>
</defs>
</svg>
