<svg width="31" height="30" viewBox="0 0 31 30" fill="none" xmlns="http://www.w3.org/2000/svg">
<g clip-path="url(#clip0_6042_362289)">
<path d="M15.5 30C23.7843 30 30.5 23.2843 30.5 15C30.5 6.71573 23.7843 0 15.5 0C7.21573 0 0.5 6.71573 0.5 15C0.5 23.2843 7.21573 30 15.5 30Z" fill="#5EB0F4"/>
<g clip-path="url(#clip1_6042_362289)">
<path d="M8.97396 6.07347C9.26172 5.94397 9.60026 5.99046 9.84063 6.193L11.2083 7.34183L12.576 6.193C12.8807 5.93733 13.331 5.93733 13.6323 6.193L15 7.34183L16.3677 6.193C16.6724 5.93733 17.1193 5.93733 17.424 6.193L18.7917 7.34183L20.1594 6.193C20.3997 5.99046 20.7383 5.94397 21.026 6.07347C21.3138 6.20296 21.5 6.48518 21.5 6.79729V22.2035C21.5 22.5157 21.3138 22.7979 21.026 22.9274C20.7383 23.0569 20.3997 23.0104 20.1594 22.8078L18.7917 21.659L17.424 22.8078C17.1193 23.0635 16.6724 23.0635 16.3677 22.8078L15 21.659L13.6323 22.8078C13.3276 23.0635 12.8773 23.0635 12.576 22.8078L11.2083 21.659L9.84063 22.8078C9.60026 23.0104 9.26172 23.0569 8.97396 22.9274C8.6862 22.7979 8.5 22.5157 8.5 22.2035V6.79729C8.5 6.48518 8.6862 6.20296 8.97396 6.07347ZM11.75 10.7817C11.4521 10.7817 11.2083 11.0207 11.2083 11.3129C11.2083 11.6051 11.4521 11.8442 11.75 11.8442H18.25C18.5479 11.8442 18.7917 11.6051 18.7917 11.3129C18.7917 11.0207 18.5479 10.7817 18.25 10.7817H11.75ZM11.2083 17.6879C11.2083 17.9801 11.4521 18.2192 11.75 18.2192H18.25C18.5479 18.2192 18.7917 17.9801 18.7917 17.6879C18.7917 17.3957 18.5479 17.1567 18.25 17.1567H11.75C11.4521 17.1567 11.2083 17.3957 11.2083 17.6879ZM11.75 13.9692C11.4521 13.9692 11.2083 14.2082 11.2083 14.5004C11.2083 14.7926 11.4521 15.0317 11.75 15.0317H18.25C18.5479 15.0317 18.7917 14.7926 18.7917 14.5004C18.7917 14.2082 18.5479 13.9692 18.25 13.9692H11.75Z" fill="white"/>
</g>
</g>
<defs>
<clipPath id="clip0_6042_362289">
<rect width="30" height="30" fill="white" transform="translate(0.5)"/>
</clipPath>
<clipPath id="clip1_6042_362289">
<rect width="13" height="17" fill="white" transform="translate(8.5 6)"/>
</clipPath>
</defs>
</svg>
