<svg width="59" height="57" viewBox="0 0 59 57" fill="none" xmlns="http://www.w3.org/2000/svg">
<path d="M13.9183 8.47557C13.2927 8.47518 12.6732 8.59811 12.0951 8.83733C11.5171 9.07655 10.9919 9.42738 10.5495 9.86974C10.1071 10.3121 9.75632 10.8373 9.51709 11.4154C9.27787 11.9934 9.15494 12.613 9.15534 13.2386C9.14361 14.5137 9.63879 15.7412 10.532 16.6513C11.4252 17.5614 12.6432 18.0794 13.9183 18.0916C14.545 18.0957 15.1662 17.9753 15.7459 17.7374C16.3257 17.4995 16.8524 17.1488 17.2955 16.7057C17.7386 16.2626 18.0893 15.7359 18.3272 15.1562C18.5651 14.5764 18.6855 13.9552 18.6813 13.3286C18.6854 12.0557 18.1878 10.8326 17.2962 9.92417C16.4046 9.01576 15.191 8.4953 13.9183 8.47557ZM26.6043 17.8866L23.4393 13.2866L26.5973 8.72457C26.6704 8.61946 26.7159 8.49767 26.7296 8.3704C26.7433 8.24312 26.7249 8.11444 26.6759 7.99616C26.6269 7.87789 26.549 7.77382 26.4493 7.69352C26.3496 7.61321 26.2313 7.55924 26.1053 7.53657L20.6513 6.55457L19.6643 1.09157C19.6417 0.965581 19.5877 0.847309 19.5074 0.747617C19.4271 0.647925 19.323 0.57001 19.2047 0.521029C19.0865 0.472048 18.9578 0.45357 18.8305 0.467294C18.7032 0.481018 18.5814 0.526503 18.4763 0.599571L13.9183 3.80657L9.31634 0.643571C9.21122 0.570502 9.08944 0.525018 8.96216 0.511294C8.83489 0.49757 8.7062 0.516048 8.58793 0.565029C8.46966 0.61401 8.36559 0.691925 8.28528 0.791617C8.20498 0.891309 8.15101 1.00958 8.12834 1.13557L7.18734 6.59657L1.72634 7.58357C1.60339 7.60233 1.48724 7.65206 1.38881 7.72809C1.29038 7.80412 1.21292 7.90394 1.16371 8.01816C1.1145 8.13238 1.09517 8.25725 1.10752 8.381C1.11988 8.50476 1.16352 8.62333 1.23434 8.72557L4.39734 13.3256L1.23434 17.8866C1.16127 17.9917 1.11578 18.1135 1.10206 18.2407C1.08834 18.368 1.10681 18.4967 1.15579 18.615C1.20478 18.7332 1.28269 18.8373 1.38238 18.9176C1.48207 18.9979 1.60035 19.0519 1.72634 19.0746L7.18534 20.0616L8.17234 25.5206C8.19501 25.6466 8.24898 25.7648 8.32928 25.8645C8.40959 25.9642 8.51366 26.0421 8.63193 26.0911C8.7502 26.1401 8.87889 26.1586 9.00616 26.1448C9.13344 26.1311 9.25522 26.0856 9.36034 26.0126L13.9183 22.8496L18.4763 26.0126C18.5814 26.0856 18.7032 26.1311 18.8305 26.1448C18.9578 26.1586 19.0865 26.1401 19.2047 26.0911C19.323 26.0421 19.4271 25.9642 19.5074 25.8645C19.5877 25.7648 19.6417 25.6466 19.6643 25.5206L20.6513 20.0616L26.1103 19.0746C26.2365 19.052 26.355 18.9981 26.4549 18.9178C26.5548 18.8375 26.633 18.7334 26.6822 18.615C26.7313 18.4967 26.75 18.3678 26.7364 18.2404C26.7228 18.1129 26.6774 17.9909 26.6043 17.8856V17.8866ZM13.9183 19.6936C12.6593 19.6936 11.4285 19.3202 10.3816 18.6207C9.33469 17.9212 8.51875 16.927 8.03692 15.7637C7.55509 14.6005 7.42902 13.3205 7.67466 12.0856C7.92029 10.8507 8.52659 9.71643 9.41689 8.82613C10.3072 7.93583 11.4415 7.32952 12.6764 7.08389C13.9113 6.83826 15.1913 6.96433 16.3545 7.44615C17.5177 7.92798 18.512 8.74393 19.2115 9.79081C19.911 10.8377 20.2843 12.0685 20.2843 13.3276C20.2847 14.1637 20.1203 14.9917 19.8006 15.7642C19.4808 16.5367 19.0119 17.2387 18.4207 17.8299C17.8294 18.4211 17.1275 18.89 16.355 19.2098C15.5824 19.5296 14.7544 19.694 13.9183 19.6936Z" fill="#005FAA"/>
<path d="M45.7386 38.8642C45.1131 38.8638 44.4935 38.9868 43.9155 39.226C43.3374 39.4652 42.8122 39.816 42.3698 40.2584C41.9275 40.7008 41.5766 41.226 41.3374 41.8041C41.0982 42.3821 40.9753 43.0016 40.9756 43.6272C40.9639 44.9023 41.4591 46.1299 42.3523 47.04C43.2455 47.95 44.4636 48.4681 45.7386 48.4802C46.3653 48.4844 46.9865 48.364 47.5662 48.1261C48.146 47.8882 48.6727 47.5375 49.1158 47.0944C49.5589 46.6513 49.9096 46.1246 50.1475 45.5448C50.3854 44.9651 50.5058 44.3439 50.5016 43.7172C50.5057 42.4444 50.0081 41.2213 49.1165 40.3128C48.225 39.4044 47.0113 38.884 45.7386 38.8642ZM58.4246 48.2752L55.2596 43.6752L58.4176 39.1132C58.4907 39.0081 58.5362 38.8863 58.5499 38.7591C58.5636 38.6318 58.5452 38.5031 58.4962 38.3848C58.4472 38.2666 58.3693 38.1625 58.2696 38.0822C58.1699 38.0019 58.0516 37.9479 57.9256 37.9252L52.4716 36.9432L51.4846 31.4802C51.462 31.3543 51.408 31.236 51.3277 31.1363C51.2474 31.0366 51.1433 30.9587 51.0251 30.9097C50.9068 30.8607 50.7781 30.8422 50.6508 30.856C50.5235 30.8697 50.4018 30.9152 50.2966 30.9882L45.7386 34.1952L41.1366 31.0322C41.0315 30.9592 40.9097 30.9137 40.7825 30.9C40.6552 30.8862 40.5265 30.9047 40.4082 30.9537C40.29 31.0027 40.1859 31.0806 40.1056 31.1803C40.0253 31.28 39.9713 31.3983 39.9486 31.5242L39.0076 36.9852L33.5466 37.9722C33.4237 37.991 33.3075 38.0407 33.2091 38.1168C33.1107 38.1928 33.0332 38.2926 32.984 38.4068C32.9348 38.5211 32.9155 38.6459 32.9278 38.7697C32.9402 38.8934 32.9838 39.012 33.0546 39.1142L36.2176 43.7142L33.0546 48.2752C32.9816 48.3804 32.9361 48.5021 32.9224 48.6294C32.9086 48.7567 32.9271 48.8854 32.9761 49.0036C33.0251 49.1219 33.103 49.226 33.2027 49.3063C33.3024 49.3866 33.4207 49.4406 33.5466 49.4632L39.0056 50.4502L39.9926 55.9092C40.0153 56.0352 40.0693 56.1535 40.1496 56.2532C40.2299 56.3529 40.334 56.4308 40.4522 56.4798C40.5705 56.5288 40.6992 56.5472 40.8265 56.5335C40.9537 56.5198 41.0755 56.4743 41.1806 56.4012L45.7386 53.2382L50.2966 56.4012C50.4018 56.4743 50.5235 56.5198 50.6508 56.5335C50.7781 56.5472 50.9068 56.5288 51.0251 56.4798C51.1433 56.4308 51.2474 56.3529 51.3277 56.2532C51.408 56.1535 51.462 56.0352 51.4846 55.9092L52.4716 50.4502L57.9306 49.4632C58.0568 49.4407 58.1753 49.3868 58.2752 49.3065C58.3751 49.2262 58.4533 49.1221 58.5025 49.0037C58.5516 48.8853 58.5703 48.7565 58.5567 48.629C58.5431 48.5016 58.4977 48.3796 58.4246 48.2742V48.2752ZM45.7386 50.0822C44.4796 50.0822 43.2488 49.7089 42.2019 49.0094C41.155 48.3099 40.3391 47.3156 39.8572 46.1524C39.3754 44.9892 39.2493 43.7092 39.495 42.4743C39.7406 41.2394 40.3469 40.1051 41.2372 39.2148C42.1275 38.3245 43.2618 37.7182 44.4967 37.4726C45.7316 37.2269 47.0116 37.353 48.1748 37.8348C49.338 38.3167 50.3323 39.1326 51.0318 40.1795C51.7313 41.2264 52.1046 42.4572 52.1046 43.7162C52.105 44.5523 51.9407 45.3803 51.6209 46.1529C51.3011 46.9254 50.8322 47.6273 50.241 48.2186C49.6498 48.8098 48.9478 49.2787 48.1753 49.5985C47.4027 49.9182 46.5748 50.0826 45.7386 50.0822Z" fill="#005FAA"/>
<path d="M45 1.31445H56.437L11.437 56.3495H0L45 1.31445Z" fill="#005FAA"/>
</svg>
