<svg width="12" height="16" viewBox="0 0 12 16" fill="none" xmlns="http://www.w3.org/2000/svg">
<g clip-path="url(#clip0_6475_366122)">
<path d="M1.52055 9.20567H10.4855C10.6644 9.20584 10.8391 9.25897 10.9877 9.35836C11.1364 9.45776 11.2522 9.59895 11.3207 9.76413C11.3892 9.92931 11.4072 10.1111 11.3724 10.2865C11.3377 10.4619 11.2518 10.623 11.1255 10.7497L6.64055 15.2317C6.5569 15.3159 6.45742 15.3827 6.34784 15.4283C6.23826 15.4739 6.12074 15.4974 6.00205 15.4974C5.88336 15.4974 5.76584 15.4739 5.65626 15.4283C5.54668 15.3827 5.4472 15.3159 5.36355 15.2317L0.877548 10.7497C0.751116 10.6229 0.66514 10.4614 0.630502 10.2857C0.595863 10.1101 0.614119 9.92804 0.682959 9.76274C0.751799 9.59744 0.868128 9.45628 1.01723 9.35711C1.16632 9.25795 1.34149 9.20524 1.52055 9.20567ZM11.1205 5.24967L6.64055 0.767668C6.5569 0.683463 6.45742 0.616636 6.34784 0.571033C6.23826 0.52543 6.12074 0.501953 6.00205 0.501953C5.88336 0.501953 5.76584 0.52543 5.65626 0.571033C5.54668 0.616636 5.4472 0.683463 5.36355 0.767668L0.877548 5.24967C0.749732 5.37625 0.662541 5.53806 0.627106 5.71442C0.591672 5.89079 0.609602 6.07372 0.678608 6.23985C0.747614 6.40597 0.864564 6.54777 1.01453 6.64713C1.16449 6.74648 1.34066 6.79889 1.52055 6.79767H10.4855C10.6648 6.7973 10.8398 6.74374 10.9885 6.64377C11.1373 6.5438 11.253 6.40193 11.321 6.23613C11.389 6.07033 11.4063 5.88808 11.3706 5.71246C11.3349 5.53684 11.2479 5.37577 11.1205 5.24967Z" fill="white"/>
</g>
<defs>
<clipPath id="clip0_6475_366122">
<rect width="10.778" height="14.996" fill="white" transform="translate(0.609375 0.501953)"/>
</clipPath>
</defs>
</svg>
