<svg width="18" height="17" viewBox="0 0 18 17" fill="none" xmlns="http://www.w3.org/2000/svg">
<path d="M17.2333 8.6176C17.2333 10.2446 16.7508 11.835 15.8469 13.1877C14.943 14.5405 13.6583 15.5948 12.1552 16.2174C10.6521 16.84 8.99813 17.0029 7.40244 16.6855C5.80675 16.3681 4.34102 15.5847 3.19059 14.4343C2.04017 13.2838 1.25672 11.8181 0.939314 10.2224C0.621912 8.62673 0.784814 6.97275 1.40742 5.46965C2.03003 3.96654 3.08437 2.68182 4.43713 1.77793C5.78989 0.874048 7.3803 0.391602 9.00725 0.391602C11.1889 0.391602 13.2812 1.25827 14.8239 2.80094C16.3666 4.34362 17.2333 6.43593 17.2333 8.6176ZM9.22725 3.1106C8.4517 3.0819 7.68284 3.26363 7.0022 3.63652C6.32157 4.00941 5.75454 4.55955 5.36125 5.2286C5.3051 5.31311 5.28315 5.41579 5.29986 5.51587C5.31658 5.61594 5.37069 5.70593 5.45125 5.7676L6.60225 6.6406C6.68542 6.70317 6.7897 6.73086 6.89295 6.71779C6.99621 6.70472 7.0903 6.65192 7.15525 6.5706C7.74825 5.8186 8.15525 5.3836 9.05525 5.3836C9.73325 5.3836 10.5713 5.8196 10.5713 6.4766C10.5713 6.9766 10.1613 7.2286 9.49225 7.6036C8.71225 8.0406 7.67925 8.5856 7.67925 9.9476V10.0806C7.67925 10.1867 7.7214 10.2884 7.79641 10.3634C7.87143 10.4385 7.97317 10.4806 8.07925 10.4806H9.93525C9.98778 10.4806 10.0398 10.4703 10.0883 10.4502C10.1369 10.4301 10.181 10.4006 10.2181 10.3634C10.2552 10.3263 10.2847 10.2822 10.3048 10.2337C10.3249 10.1851 10.3353 10.1331 10.3353 10.0806V10.0286C10.3353 9.0846 13.0943 9.0456 13.0943 6.4906C13.0933 4.5706 11.0973 3.1106 9.22725 3.1106ZM9.00625 11.3366C8.70444 11.3366 8.4094 11.4261 8.15845 11.5938C7.9075 11.7615 7.71191 11.9998 7.59641 12.2786C7.48091 12.5575 7.45069 12.8643 7.50958 13.1603C7.56846 13.4563 7.71379 13.7282 7.92721 13.9416C8.14062 14.1551 8.41253 14.3004 8.70855 14.3593C9.00456 14.4182 9.31139 14.3879 9.59023 14.2724C9.86907 14.1569 10.1074 13.9614 10.2751 13.7104C10.4428 13.4595 10.5323 13.1644 10.5323 12.8626C10.5317 12.4582 10.3709 12.0705 10.0851 11.7845C9.79922 11.4985 9.41164 11.3374 9.00725 11.3366H9.00625Z" fill="#6C6C6C"/>
</svg>
