<svg width="15" height="14" viewBox="0 0 15 14" fill="none" xmlns="http://www.w3.org/2000/svg">
<path fill-rule="evenodd" clip-rule="evenodd" d="M14.5 7C14.5 10.866 11.366 14 7.5 14C3.63401 14 0.5 10.866 0.5 7C0.5 3.13401 3.63401 0 7.5 0C11.366 0 14.5 3.13401 14.5 7ZM7.50001 4.375C7.17724 4.375 6.89415 4.54931 6.74154 4.81314C6.49956 5.23144 5.9643 5.37438 5.546 5.13241C5.12769 4.89043 4.98475 4.35517 5.22673 3.93686C5.67928 3.15453 6.52729 2.625 7.50001 2.625C8.94976 2.625 10.125 3.80025 10.125 5.25C10.125 6.39294 9.39456 7.36528 8.37501 7.72563V7.875C8.37501 8.35825 7.98326 8.75 7.50001 8.75C7.01676 8.75 6.62501 8.35825 6.62501 7.875V7C6.62501 6.51675 7.01676 6.125 7.50001 6.125C7.98326 6.125 8.37501 5.73325 8.37501 5.25C8.37501 4.76675 7.98326 4.375 7.50001 4.375ZM7.5 11.375C7.98325 11.375 8.375 10.9832 8.375 10.5C8.375 10.0168 7.98325 9.625 7.5 9.625C7.01675 9.625 6.625 10.0168 6.625 10.5C6.625 10.9832 7.01675 11.375 7.5 11.375Z" fill="#6C6C6C"/>
</svg>
