<svg width="24" height="25" viewBox="0 0 24 25" fill="none" xmlns="http://www.w3.org/2000/svg">
<path d="M5.09181 11.0239H1.46981C1.18152 11.0239 0.905039 11.1384 0.701187 11.3422C0.497335 11.5461 0.382813 11.8226 0.382812 12.1109L0.382813 22.9809C0.382813 23.2691 0.497335 23.5456 0.701187 23.7495C0.905039 23.9533 1.18152 24.0679 1.46981 24.0679H5.09181C5.2349 24.0684 5.37668 24.0407 5.50902 23.9863C5.64136 23.9319 5.76166 23.8519 5.86302 23.7509C5.96439 23.6499 6.04481 23.5299 6.09969 23.3978C6.15457 23.2656 6.18281 23.1239 6.18281 22.9809V12.1109C6.18281 11.9678 6.15457 11.8261 6.09969 11.694C6.04481 11.5618 5.96439 11.4418 5.86302 11.3408C5.76166 11.2398 5.64136 11.1598 5.50902 11.1055C5.37668 11.0511 5.2349 11.0233 5.09181 11.0239ZM3.28281 22.2529C3.06782 22.2529 2.85766 22.1891 2.67891 22.0697C2.50015 21.9502 2.36083 21.7805 2.27856 21.5818C2.19628 21.3832 2.17476 21.1647 2.2167 20.9538C2.25864 20.7429 2.36217 20.5493 2.51419 20.3972C2.66621 20.2452 2.85989 20.1417 3.07075 20.0997C3.28161 20.0578 3.50017 20.0793 3.69879 20.1616C3.89741 20.2439 4.06718 20.3832 4.18662 20.562C4.30606 20.7407 4.36981 20.9509 4.36981 21.1659C4.36981 21.3086 4.3417 21.45 4.28707 21.5818C4.23244 21.7137 4.15237 21.8335 4.05144 21.9345C3.9505 22.0354 3.83067 22.1155 3.69879 22.1701C3.56691 22.2247 3.42556 22.2529 3.28281 22.2529ZM17.7708 4.56886C17.7708 6.48986 16.5948 7.56886 16.2638 8.84986H20.8698C21.5737 8.8509 22.2495 9.12628 22.7536 9.61754C23.2578 10.1088 23.5506 10.7772 23.5698 11.4809C23.5681 12.308 23.2537 13.1038 22.6898 13.7089C22.9267 14.2962 23.0122 14.9336 22.9387 15.5626C22.8651 16.1916 22.6348 16.792 22.2688 17.3089C22.4417 17.8898 22.4643 18.5051 22.3345 19.0971C22.2048 19.6891 21.9268 20.2385 21.5268 20.6939C21.6318 21.0305 21.6613 21.3861 21.6132 21.7354C21.5652 22.0847 21.4408 22.4191 21.2488 22.7149C20.3248 24.0429 18.0338 24.0619 16.0968 24.0619H15.9678C14.0802 23.982 12.2326 23.4916 10.5538 22.6249C9.80842 22.2423 9.00139 21.9941 8.16981 21.8919C8.02745 21.8892 7.89178 21.8309 7.79194 21.7294C7.69211 21.6279 7.63605 21.4912 7.63581 21.3489V11.6689C7.6358 11.5971 7.65002 11.526 7.67766 11.4597C7.70529 11.3935 7.74579 11.3334 7.79681 11.2829C9.58281 9.51386 10.3538 7.63786 11.8238 6.16486C12.4399 5.39537 12.8371 4.47406 12.9738 3.49786C13.1738 2.65986 13.5968 0.880859 14.5098 0.880859C15.5968 0.880859 17.7708 1.24286 17.7708 4.56886Z" fill="#B1DBFD"/>
</svg>