<svg width="25" height="25" viewBox="0 0 25 25" fill="none" xmlns="http://www.w3.org/2000/svg">
<path d="M24.1449 3.41686V14.2809C24.1453 14.4236 24.1176 14.565 24.0633 14.6971C24.0091 14.8291 23.9293 14.9491 23.8287 15.0504C23.728 15.1516 23.6084 15.232 23.4767 15.287C23.345 15.342 23.2037 15.3705 23.0609 15.3709H19.4349C19.292 15.3707 19.1505 15.3424 19.0186 15.2875C18.8866 15.2327 18.7668 15.1523 18.6659 15.0511C18.565 14.9498 18.4851 14.8297 18.4307 14.6975C18.3763 14.5654 18.3485 14.4238 18.3489 14.2809V3.41686C18.3489 3.12857 18.4635 2.85209 18.6673 2.64823C18.8712 2.44438 19.1476 2.32986 19.4359 2.32986H23.0609C23.3487 2.33065 23.6244 2.44553 23.8276 2.64929C24.0308 2.85306 24.1449 3.12909 24.1449 3.41686ZM22.3339 12.4729C22.3339 12.2579 22.2702 12.0477 22.1507 11.869C22.0313 11.6902 21.8615 11.5509 21.6629 11.4686C21.4643 11.3863 21.2457 11.3648 21.0349 11.4067C20.824 11.4487 20.6303 11.5522 20.4783 11.7042C20.3263 11.8563 20.2228 12.0499 20.1808 12.2608C20.1389 12.4717 20.1604 12.6902 20.2427 12.8888C20.325 13.0875 20.4643 13.2572 20.643 13.3767C20.8218 13.4961 21.0319 13.5599 21.2469 13.5599C21.5351 13.5596 21.8113 13.445 22.0149 13.2411C22.2186 13.0373 22.3329 12.761 22.3329 12.4729H22.3339ZM10.0169 24.0649C10.9309 24.0649 11.3519 22.2859 11.5529 21.4479C11.6896 20.4717 12.0869 19.5504 12.7029 18.7809C14.1729 17.3079 14.9449 15.4319 16.7379 13.6589C16.789 13.6084 16.8295 13.5483 16.8572 13.482C16.8848 13.4158 16.899 13.3447 16.8989 13.2729V3.59286C16.8987 3.45047 16.8426 3.31385 16.7428 3.21233C16.643 3.11081 16.5073 3.05248 16.3649 3.04986C15.5334 2.9476 14.7263 2.69946 13.9809 2.31686C12.3024 1.45062 10.4552 0.960584 8.56794 0.880859L8.43994 0.880859C6.50294 0.880859 4.21194 0.899859 3.28794 2.22786C3.09599 2.52362 2.97157 2.85805 2.92352 3.20735C2.87547 3.55665 2.90497 3.91225 3.00994 4.24886C2.60991 4.70418 2.33199 5.25359 2.20221 5.84563C2.07244 6.43766 2.09505 7.05295 2.26794 7.63386C1.90206 8.15073 1.67178 8.75118 1.59823 9.38016C1.52467 10.0091 1.61019 10.6465 1.84694 11.2339C1.28022 11.8388 0.963657 12.6359 0.960938 13.4649C0.980444 14.1684 1.27331 14.8367 1.77739 15.3279C2.28147 15.8191 2.95711 16.0946 3.66094 16.0959H8.26094C7.93294 17.3809 6.76094 18.4559 6.76094 20.3809C6.76094 23.7019 8.92994 24.0649 10.0169 24.0649Z" fill="#B1DBFD"/>
</svg>