<svg width="38" height="39" viewBox="0 0 38 39" fill="none" xmlns="http://www.w3.org/2000/svg">
<circle cx="18" cy="18.1211" r="18" fill="#044F8D"/>
<path d="M6.09425 6.31999L29.8013 30.028C30.2803 30.507 30.2803 31.2837 29.8013 31.7627C29.3222 32.2417 28.5456 32.2417 28.0666 31.7627L21.8759 25.5708L10.0384 25.5711C6.70346 25.5711 4 22.8746 4 19.5484C4 16.29 6.59424 13.636 9.83502 13.529L4.35952 8.05465C3.88051 7.57562 3.88052 6.79897 4.35956 6.31995C4.83859 5.84094 5.61524 5.84096 6.09425 6.31999ZM18.7185 5.95312C23.9006 5.95312 26.8403 9.38322 27.2678 13.5256L27.3986 13.5256C30.7335 13.5256 33.437 16.2221 33.437 19.5484C33.437 22.4373 31.3977 24.8511 28.6766 25.4359L26.362 23.1208L27.3071 23.1218C29.3695 23.1218 31.0413 21.4842 31.0413 19.4641C31.0413 17.4441 29.3695 15.8065 27.3072 15.8065L26.1777 15.8065C25.5804 15.8065 25.0588 15.3478 25.0588 14.7632C25.0588 11.0262 22.1061 8.40241 18.7185 8.40241C16.8198 8.40241 15.0577 9.24156 13.8755 10.6288L12.0641 8.81729C13.5097 7.07395 15.7444 5.95312 18.7185 5.95312ZM19.4259 23.1208L11.9115 15.6074C11.7252 15.733 11.4983 15.8065 11.2592 15.8065L10.1298 15.8065C8.0675 15.8065 6.39565 17.4441 6.39565 19.4641C6.39565 21.4842 8.0675 23.1218 10.1298 23.1218L19.4259 23.1208Z" fill="white"/>
</svg>
