<svg width="20" height="18" viewBox="0 0 20 18" fill="none" xmlns="http://www.w3.org/2000/svg">
<path d="M10.2584 13.046C10.0995 12.9501 9.9005 12.9501 9.74158 13.046L7.25194 14.5491C6.87367 14.7774 6.40681 14.4388 6.50639 14.0083L7.16218 11.1732C7.20391 10.9928 7.14254 10.8041 7.00268 10.6828L4.8048 8.77621C4.47075 8.48643 4.64969 7.93751 5.09035 7.90029L7.98927 7.6554C8.17422 7.63978 8.33529 7.523 8.40764 7.35207L9.53955 4.67785C9.71174 4.27104 10.2883 4.27104 10.4605 4.67785L11.5924 7.35207C11.6647 7.523 11.8258 7.63978 12.0107 7.6554L14.9097 7.90029C15.3503 7.93751 15.5293 8.48643 15.1952 8.77621L12.9973 10.6828C12.8575 10.8041 12.7961 10.9928 12.8378 11.1732L13.4936 14.0083C13.5932 14.4388 13.1263 14.7774 12.7481 14.5491L10.2584 13.046ZM19.1043 7.51594C19.4386 7.22634 19.2599 6.67721 18.8192 6.63982L13.1104 6.15549C12.9256 6.13981 12.7647 6.02314 12.6923 5.85239L10.4604 0.586186C10.2881 0.179672 9.71193 0.179671 9.53964 0.586185L7.30766 5.85239C7.23529 6.02314 7.07436 6.13981 6.88957 6.15549L1.17932 6.63995C0.738824 6.67732 0.559989 7.22601 0.89386 7.51577L5.22266 11.2727C5.36252 11.3941 5.42384 11.5828 5.38201 11.7632L4.08715 17.3478C3.98732 17.7784 4.45421 18.1172 4.83259 17.8888L9.74163 14.9259C9.90053 14.83 10.0995 14.83 10.2584 14.9259L15.1655 17.8877C15.5442 18.1162 16.0113 17.7767 15.9108 17.346L14.6086 11.7639C14.5664 11.5832 14.6278 11.3939 14.7681 11.2724L19.1043 7.51594Z" fill="white"/>
</svg>
